<svg id="Capa_1" data-name="Capa 1" xmlns="http://www.w3.org/2000/svg" viewBox="0 0 509.87 150.29">
  <defs>
    <style>
      .cls-1 {
        fill: #ff6d00;
      }

      .cls-2 {
        fill: #00a053;
      }

      .cls-3, .cls-4 {
        fill: none;
        stroke-miterlimit: 10;
        stroke-width: 3px;
      }

      .cls-3 {
        stroke: #ff6d00;
      }

      .cls-4 {
        stroke: #00a053;
      }
    </style>
  </defs>
  <title>feature-1</title>
  <g>
    <path class="cls-1" d="M66.29,138.26c-7.24,0-13.14-7.68-13.14-17.13S59.05,104,66.29,104s13.14,7.68,13.14,17.12S73.54,138.26,66.29,138.26Zm0-31.25c-5.59,0-10.14,6.34-10.14,14.12s4.55,14.13,10.14,14.13,10.14-6.34,10.14-14.13S71.88,107,66.29,107Z" transform="translate(312.41 -41.63)"/>
    <path class="cls-1" d="M94,138.26c-7.24,0-13.13-7.68-13.13-17.13S86.79,104,94,104s13.14,7.68,13.14,17.12S101.28,138.26,94,138.26ZM94,107c-5.59,0-10.13,6.34-10.13,14.12S88.44,135.26,94,135.26s10.14-6.34,10.14-14.13S99.63,107,94,107Z" transform="translate(312.41 -41.63)"/>
    <path class="cls-1" d="M112.5,154.43a8.29,8.29,0,0,1-1.72-.17,9.6,9.6,0,0,1-6.77-5.52,15.87,15.87,0,0,1-1.07-9.92c1.48-7.51,7.24-12.49,13.11-11.33h0c5.87,1.16,9.31,7.94,7.84,15.45a15.87,15.87,0,0,1-4.75,8.78A10,10,0,0,1,112.5,154.43Zm1.84-24.1c-3.82,0-7.4,3.74-8.45,9.07a12.74,12.74,0,0,0,.82,8,6.3,6.3,0,0,0,10.43,2,12.82,12.82,0,0,0,3.8-7.12c1.16-5.85-1.25-11.09-5.47-11.92A5.41,5.41,0,0,0,114.34,130.33Z" transform="translate(312.41 -41.63)"/>
    <path class="cls-1" d="M47.84,154.43c-5.24,0-10.07-4.71-11.4-11.49-1.48-7.5,2-14.29,7.83-15.45A9.64,9.64,0,0,1,52.64,130a15.86,15.86,0,0,1,4.74,8.78h0c1.48,7.5-2,14.29-7.83,15.44A8.27,8.27,0,0,1,47.84,154.43ZM46,130.33a5.32,5.32,0,0,0-1.12.11c-4.22.83-6.62,6.07-5.47,11.92s5.36,9.79,9.59,9,6.62-6.07,5.47-11.92h0a12.94,12.94,0,0,0-3.8-7.13A7.06,7.06,0,0,0,46,130.33Z" transform="translate(312.41 -41.63)"/>
    <path class="cls-1" d="M90.64,191.92a19.16,19.16,0,0,1-10.48-3.1,19.1,19.1,0,0,1-10.47,3.1,19.3,19.3,0,0,1-8.43-36.66,19.3,19.3,0,0,1,37.81,0,19.3,19.3,0,0,1-8.43,36.66Zm-10.48-6.78.89.65a16.13,16.13,0,0,0,9.59,3.13,16.3,16.3,0,0,0,6.49-31.25l-.75-.32-.13-.81a16.29,16.29,0,0,0-32.17,0l-.14.81-.75.32a16.3,16.3,0,0,0,6.5,31.25,16.15,16.15,0,0,0,9.59-3.13Z" transform="translate(312.41 -41.63)"/>
    <path class="cls-2" d="M139.52,75.88c-7.24,0-13.14-7.69-13.14-17.13s5.9-17.12,13.14-17.12,13.14,7.68,13.14,17.12S146.76,75.88,139.52,75.88Zm0-31.25c-5.59,0-10.14,6.34-10.14,14.12s4.55,14.13,10.14,14.13,10.14-6.34,10.14-14.13S145.11,44.63,139.52,44.63Z" transform="translate(312.41 -41.63)"/>
    <path class="cls-2" d="M167.26,75.88c-7.24,0-13.14-7.69-13.14-17.13s5.9-17.12,13.14-17.12,13.14,7.68,13.14,17.12S174.51,75.88,167.26,75.88Zm0-31.25c-5.59,0-10.14,6.34-10.14,14.12s4.55,14.13,10.14,14.13,10.14-6.34,10.14-14.13S172.85,44.63,167.26,44.63Z" transform="translate(312.41 -41.63)"/>
    <path class="cls-2" d="M185.72,92.05a8.27,8.27,0,0,1-1.71-.17,9.59,9.59,0,0,1-6.77-5.52,16.79,16.79,0,0,1,3.68-18.7,9.63,9.63,0,0,1,8.36-2.55c5.87,1.16,9.31,7.94,7.83,15.45a15.79,15.79,0,0,1-4.74,8.78A10,10,0,0,1,185.72,92.05ZM187.58,68a7.06,7.06,0,0,0-4.66,1.94,13.88,13.88,0,0,0-3,15.16,6.31,6.31,0,0,0,10.44,2,12.82,12.82,0,0,0,3.8-7.12c1.15-5.85-1.25-11.09-5.47-11.92h0A5.25,5.25,0,0,0,187.58,68Z" transform="translate(312.41 -41.63)"/>
    <path class="cls-2" d="M121.07,92.05c-5.24,0-10.07-4.71-11.4-11.49a15.87,15.87,0,0,1,1.06-9.92,9.66,9.66,0,0,1,6.77-5.53c5.87-1.16,11.63,3.82,13.11,11.33s-2,14.29-7.84,15.44h0A8.17,8.17,0,0,1,121.07,92.05ZM119.21,68a5.48,5.48,0,0,0-1.13.11A6.69,6.69,0,0,0,113.43,72a12.88,12.88,0,0,0-.82,8c1.16,5.86,5.37,9.79,9.58,9s6.63-6.07,5.48-11.92C126.62,71.69,123,68,119.21,68Z" transform="translate(312.41 -41.63)"/>
    <path class="cls-2" d="M163.87,129.54a19.16,19.16,0,0,1-10.48-3.1,19.1,19.1,0,0,1-10.47,3.1,19.3,19.3,0,0,1-8.43-36.66,19.3,19.3,0,0,1,37.8,0,19.3,19.3,0,0,1-8.42,36.66Zm-10.48-6.78.89.65a16.13,16.13,0,0,0,9.59,3.13,16.3,16.3,0,0,0,6.49-31.25l-.75-.32-.13-.81a16.3,16.3,0,0,0-32.18,0l-.13.81-.75.32a16.3,16.3,0,1,0,16.09,28.12Z" transform="translate(312.41 -41.63)"/>
  </g>
  <path class="cls-3" d="M-282.22,136.76c6.42,0,11.64-7,11.64-15.63s-5.22-15.62-11.64-15.62-11.63,7-11.63,15.62S-288.63,136.76-282.22,136.76Z" transform="translate(312.41 -41.63)"/>
  <path class="cls-3" d="M-254.47,136.76c6.41,0,11.64-7,11.64-15.63s-5.23-15.62-11.64-15.62-11.64,7-11.64,15.62S-260.89,136.76-254.47,136.76Z" transform="translate(312.41 -41.63)"/>
  <path class="cls-3" d="M-232.75,129c-5-1-10,3.46-11.34,10.15s1.6,12.69,6.65,13.68,10-3.46,11.35-10.14S-227.7,130-232.75,129Z" transform="translate(312.41 -41.63)"/>
  <path class="cls-3" d="M-292.6,139.11c-1.31-6.69-6.29-11.14-11.34-10.15s-8,7-6.66,13.69,6.31,11.14,11.35,10.14S-291.28,145.79-292.6,139.11Z" transform="translate(312.41 -41.63)"/>
  <path class="cls-3" d="M-250.78,156.3a17.83,17.83,0,0,0-17.56-15,17.83,17.83,0,0,0-17.57,15,17.82,17.82,0,0,0-10.71,16.32,17.82,17.82,0,0,0,17.8,17.8A17.73,17.73,0,0,0-268.34,187a17.68,17.68,0,0,0,10.47,3.42,17.81,17.81,0,0,0,17.8-17.8A17.82,17.82,0,0,0-250.78,156.3Z" transform="translate(312.41 -41.63)"/>
  <path class="cls-4" d="M-209,74.38c6.42,0,11.64-7,11.64-15.63S-202.57,43.13-209,43.13s-11.64,7-11.64,15.62S-215.41,74.38-209,74.38Z" transform="translate(312.41 -41.63)"/>
  <path class="cls-4" d="M-181.24,74.38c6.41,0,11.63-7,11.63-15.63s-5.22-15.62-11.63-15.62-11.64,7-11.64,15.62S-187.66,74.38-181.24,74.38Z" transform="translate(312.41 -41.63)"/>
  <path class="cls-4" d="M-159.52,66.58c-5-1-10,3.46-11.34,10.15s1.6,12.69,6.65,13.68,10-3.46,11.35-10.14S-154.47,67.58-159.52,66.58Z" transform="translate(312.41 -41.63)"/>
  <path class="cls-4" d="M-226,90.41c5.05-1,8-7,6.65-13.68s-6.3-11.14-11.34-10.15-8,7-6.66,13.69S-231.06,91.41-226,90.41Z" transform="translate(312.41 -41.63)"/>
  <path class="cls-4" d="M-177.55,93.92a17.83,17.83,0,0,0-17.57-15,17.83,17.83,0,0,0-17.56,15,17.82,17.82,0,0,0-10.71,16.32,17.81,17.81,0,0,0,17.8,17.8,17.73,17.73,0,0,0,10.48-3.42A17.68,17.68,0,0,0-184.64,128a17.81,17.81,0,0,0,17.8-17.8A17.82,17.82,0,0,0-177.55,93.92Z" transform="translate(312.41 -41.63)"/>
</svg>
