<svg id="Capa_1" data-name="Capa 1" xmlns="http://www.w3.org/2000/svg" xmlns:xlink="http://www.w3.org/1999/xlink" viewBox="0 0 418.52 512">
  <defs>
    <style>
      .cls-1 {
        fill: url(#linear-gradient);
      }

      .cls-2 {
        fill: url(#linear-gradient-2);
      }

      .cls-3 {
        fill: url(#linear-gradient-3);
      }

      .cls-4 {
        fill: url(#linear-gradient-4);
      }

      .cls-5 {
        fill: url(#linear-gradient-5);
      }

      .cls-6 {
        fill: url(#linear-gradient-6);
      }

      .cls-7 {
        fill: url(#linear-gradient-7);
      }

      .cls-8 {
        fill: url(#linear-gradient-8);
      }
    </style>
    <linearGradient id="linear-gradient" x1="14.34" y1="-138.09" x2="-46.33" y2="-76.09" gradientTransform="translate(297.04 1043) scale(8)" gradientUnits="userSpaceOnUse">
      <stop offset="0" stop-color="#f7941e"/>
      <stop offset="1" stop-color="#ee2a7b"/>
    </linearGradient>
    <linearGradient id="linear-gradient-2" x1="31.01" y1="-121.78" x2="-29.66" y2="-59.77" xlink:href="#linear-gradient"/>
    <linearGradient id="linear-gradient-3" x1="11.14" y1="-141.23" x2="-49.53" y2="-79.22" xlink:href="#linear-gradient"/>
    <linearGradient id="linear-gradient-4" x1="17.28" y1="-135.21" x2="-43.38" y2="-73.21" xlink:href="#linear-gradient"/>
    <linearGradient id="linear-gradient-5" x1="28.28" y1="-124.45" x2="-32.39" y2="-62.45" xlink:href="#linear-gradient"/>
    <linearGradient id="linear-gradient-6" x1="32.41" y1="-120.4" x2="-28.25" y2="-58.4" xlink:href="#linear-gradient"/>
    <linearGradient id="linear-gradient-7" x1="34.46" y1="-118.4" x2="-26.21" y2="-56.4" xlink:href="#linear-gradient"/>
    <linearGradient id="linear-gradient-8" x1="30.37" y1="-122.4" x2="-30.3" y2="-60.4" xlink:href="#linear-gradient"/>
  </defs>
  <title>feature-2</title>
  <g>
    <path class="cls-1" d="M103.77,264h2.4c3.2,0,6.4-2.4,8-5.6l4-16c.8-4-1.6-8.8-5.6-9.6s-8.8,1.6-9.6,5.6l-4,16C96.57,258.4,99,262.4,103.77,264Z" transform="translate(-46.74)"/>
    <path class="cls-2" d="M89.37,285.6l-40.8,136c-4.8,20.8,0,42.4,12.8,60C76.57,500.8,99,512,123,512h264.8c24,0,47.2-12,62.4-31.2,13.6-17.6,18.4-39.2,12.8-59.2l-59.2-208a71.84,71.84,0,0,0-69.6-54.4h-156c-32.8,0-61.6,22.4-69.6,53.6-.8,4,1.6,8.8,5.6,9.6s8.8-1.6,9.6-5.6c6.4-24.8,28.8-41.6,54.4-41.6h12l-5.6,23.2c-.8,4,1.6,8.8,5.6,9.6h1.6a8.42,8.42,0,0,0,8-6.4l6.4-25.6h99.2l6.4,25.6a7.79,7.79,0,0,0,8,6.4h1.6c4-.8,7.2-5.6,5.6-9.6L323,176h12a56.44,56.44,0,0,1,54.4,42.4l59.2,208c4,15.2,0,31.2-10.4,44.8a61.75,61.75,0,0,1-49.6,24.8H123.77c-19.2,0-37.6-8.8-48.8-24.8-10.4-13.6-14.4-29.6-10.4-45.6l40.8-136a7.1,7.1,0,0,0-5.6-9.6A9.17,9.17,0,0,0,89.37,285.6Z" transform="translate(-46.74)"/>
    <path class="cls-3" d="M174.17,0,211,128h92L346.17,0ZM291,112h-23.2l20.8-61.6c1.6-4-.8-8.8-4.8-10.4s-8.8.8-10.4,4.8l-16.8,49.6-16.8-49.6a8.1,8.1,0,0,0-15.2,5.6l20.8,61.6h-23.2L195,16H323Z" transform="translate(-46.74)"/>
    <path class="cls-4" d="M296.57,136h-80a8,8,0,0,0,0,16h80a8,8,0,0,0,0-16Z" transform="translate(-46.74)"/>
    <path class="cls-5" d="M216.57,376h-8a8,8,0,1,0,0,16h24v16a8,8,0,0,0,16,0V392h8v16a8,8,0,0,0,16,0V392h4.8a27,27,0,0,0,27.2-27.2V350.4c0-12-6.4-22.4-17.6-28h-.8a31.22,31.22,0,0,0,17.6-28V292a27,27,0,0,0-27.2-27.2h-4v-16a8,8,0,0,0-16,0v16h-8v-16a8,8,0,0,0-16,0v16h-24a8,8,0,0,0,0,16h8V376Zm72-25.6v14.4a10.94,10.94,0,0,1-11.2,11.2h-44.8V328H263l17.6,8.8C285.37,339.2,288.57,344.8,288.57,350.4Zm0-59.2v2.4c0,7.2-4.8,12.8-11.2,15.2l-13.6,3.2h-31.2V280h44.8A10.94,10.94,0,0,1,288.57,291.2Z" transform="translate(-46.74)"/>
    <path class="cls-6" d="M176.57,480a8,8,0,0,0,0-16h-8a8,8,0,1,0,0,16Z" transform="translate(-46.74)"/>
    <path class="cls-7" d="M192.57,472a7.56,7.56,0,0,0,8,8h8a8,8,0,0,0,0-16h-8A7.56,7.56,0,0,0,192.57,472Z" transform="translate(-46.74)"/>
    <path class="cls-8" d="M144.57,480a8,8,0,0,0,0-16h-8a8,8,0,1,0,0,16Z" transform="translate(-46.74)"/>
  </g>
</svg>
