<svg id="Capa_1" data-name="Capa 1" xmlns="http://www.w3.org/2000/svg" viewBox="0 0 439.07 444.7">
  <defs>
    <style>
      .cls-1 {
        fill: #ff6d00;
      }

      .cls-2 {
        fill: #0096d8;
      }

      .cls-3 {
        fill: #00a053;
      }
    </style>
  </defs>
  <title>feature-3</title>
  <g>
    <path class="cls-1" d="M440.58,422.06l-17.64-39.94a67.65,67.65,0,0,1-4.65-19.3l-1.4-24.88c-.34-6-.62-127.56-.62-127.56,0-8.7-5.51-16.14-15.77-16.47L356.9,192c-5.57-.25-14.64,2.11-16.91,13.66l-7.93,50.38a7.33,7.33,0,0,1-6.69,5.81l-34.46.53c-8.16.12-15,5.5-15.5,12.24a11,11,0,0,0,2.9,8.26,15.83,15.83,0,0,0,11.3,5l50,1.85L339.53,301l-22.08,57.67a102.17,102.17,0,0,0-5.32,22.51l-4.67,47a14.84,14.84,0,0,0,14.87,16.48h2a17.7,17.7,0,0,0,17.17-15.33l4.36-38.68a50.85,50.85,0,0,1,6.48-18L375,338l9.34,38.9a125.8,125.8,0,0,0,7.79,21.61l16.46,33.55a19.28,19.28,0,0,0,17.09,10.37,17,17,0,0,0,4.12-.5l1.19-.29a13.93,13.93,0,0,0,9.59-19.59ZM324.3,439.7Z" transform="translate(-2.82)"/>
    <path class="cls-2" d="M308.77,251.37h0a15.94,15.94,0,0,0,15.66-14.61l3.17-45.47A14.25,14.25,0,0,0,313.31,176l-62.5-.1a16,16,0,0,0-15.67,14.61L232,235.92a14.22,14.22,0,0,0,14.28,15.34l62.48.11Zm0-5Z" transform="translate(-2.82)"/>
    <path class="cls-1" d="M327.16,130.49a17.35,17.35,0,0,0,13.5,10.61l9.21,1a37.81,37.81,0,0,0,37.65,40.6h0a37.76,37.76,0,1,0-20.37-69.53L334,110.05c-.4,0-.78,0-1.16,0a9.2,9.2,0,0,0-7.72,3.76,9.61,9.61,0,0,0-.85,8.9Z" transform="translate(-2.82)"/>
    <path class="cls-3" d="M182.1,0H13.82a11,11,0,0,0-11,11V292.28a11,11,0,0,0,11,11H182.1a11,11,0,0,0,11-11V11A11,11,0,0,0,182.1,0ZM61.34,201.33H26.67V184.57H61.34v16.76Zm100.89-63.09H33.69V32H162.23Z" transform="translate(-2.82)"/>
  </g>
</svg>
